<?xml version="1.0" encoding="UTF-8" standalone="no"?>
<svg xmlns="http://www.w3.org/2000/svg" width="300" height="200" viewBox="0 0 300 200">
  <rect width="300" height="200" fill="#1a1a1a" />
  <g fill="#6e00ff">
    <path d="M150 80 C150 70, 160 60, 170 60 C180 60, 190 70, 190 80 C190 90, 180 100, 170 100 C160 100, 150 90, 150 80" />
    <path d="M110 80 C110 70, 120 60, 130 60 C140 60, 150 70, 150 80 C150 90, 140 100, 130 100 C120 100, 110 90, 110 80" />
    <rect x="110" y="110" width="80" height="10" rx="5" />
  </g>
  <text x="150" y="150" font-family="Arial" font-size="14" fill="#ffffff" text-anchor="middle">Imagem Indisponível</text>
</svg>