<?xml version="1.0" encoding="UTF-8" standalone="no"?>
<svg xmlns="http://www.w3.org/2000/svg" width="1200" height="400" viewBox="0 0 1200 400">
  <defs>
    <linearGradient id="grad1" x1="0%" y1="0%" x2="100%" y2="100%">
      <stop offset="0%" style="stop-color:#7a00cc;stop-opacity:1" />
      <stop offset="100%" style="stop-color:#0080b3;stop-opacity:1" />
    </linearGradient>
    <filter id="glow" x="-50%" y="-50%" width="200%" height="200%">
      <feGaussianBlur stdDeviation="10" result="blur" />
      <feComposite in="SourceGraphic" in2="blur" operator="over" />
    </filter>
  </defs>
  
  <!-- Background -->
  <rect width="1200" height="400" fill="#101020" />
  
  <!-- Lines and grid pattern -->
  <g stroke="#6e00ff" stroke-opacity="0.3" stroke-width="1">
    <!-- Horizontal lines -->
    <line x1="0" y1="50" x2="1200" y2="50" />
    <line x1="0" y1="100" x2="1200" y2="100" />
    <line x1="0" y1="150" x2="1200" y2="150" />
    <line x1="0" y1="200" x2="1200" y2="200" />
    <line x1="0" y1="250" x2="1200" y2="250" />
    <line x1="0" y1="300" x2="1200" y2="300" />
    <line x1="0" y1="350" x2="1200" y2="350" />
    
    <!-- Vertical lines -->
    <line x1="100" y1="0" x2="100" y2="400" />
    <line x1="200" y1="0" x2="200" y2="400" />
    <line x1="300" y1="0" x2="300" y2="400" />
    <line x1="400" y1="0" x2="400" y2="400" />
    <line x1="500" y1="0" x2="500" y2="400" />
    <line x1="600" y1="0" x2="600" y2="400" />
    <line x1="700" y1="0" x2="700" y2="400" />
    <line x1="800" y1="0" x2="800" y2="400" />
    <line x1="900" y1="0" x2="900" y2="400" />
    <line x1="1000" y1="0" x2="1000" y2="400" />
    <line x1="1100" y1="0" x2="1100" y2="400" />
  </g>
  
  <!-- Random glowing elements -->
  <g filter="url(#glow)">
    <!-- Circles -->
    <circle cx="200" cy="150" r="20" fill="none" stroke="#b833ff" stroke-width="2" />
    <circle cx="800" cy="250" r="30" fill="none" stroke="#00b8ff" stroke-width="2" />
    <circle cx="1000" cy="100" r="15" fill="none" stroke="#b833ff" stroke-width="2" />
    <circle cx="400" cy="300" r="25" fill="none" stroke="#00b8ff" stroke-width="2" />
    
    <!-- Lines -->
    <line x1="100" y1="100" x2="300" y2="300" stroke="#b833ff" stroke-width="3" />
    <line x1="700" y1="50" x2="900" y2="350" stroke="#00b8ff" stroke-width="3" />
    <line x1="500" y1="200" x2="700" y2="100" stroke="#b833ff" stroke-width="3" />
  </g>
  
  <!-- Central glowing orb -->
  <circle cx="600" cy="200" r="50" fill="url(#grad1)" opacity="0.7" filter="url(#glow)" />
  
  <!-- Abstract geometric patterns -->
  <g fill="none" stroke="#b833ff" stroke-width="1.5" opacity="0.6">
    <polygon points="600,100 650,175 600,250 550,175" />
    <polyline points="400,150 450,200 400,250 350,200 400,150" />
    <polyline points="800,150 850,200 800,250 750,200 800,150" />
  </g>
</svg>